<?xml version="1.0" encoding="UTF-8"?>
<!-- Generator: visioncortex VTracer 0.6.5 -->
<svg version="1.1" xmlns="http://www.w3.org/2000/svg" width="768" height="768">
<path d="M0 0 C15.968883 11.237362 21.889059 23.782015 26.0625 42.5625 C31.425781 46.484375 31.425781 46.484375 38.375 50.3125 C40.829375 51.696953 43.28375 53.081406 45.8125 54.507812 C48.205 55.845859 50.5975 57.183906 53.0625 58.5625 C56.682209 60.745264 60.288134 62.951176 63.875 65.1875 C65.555938 66.235508 67.236875 67.283516 68.96875 68.363281 C70.649688 69.419023 72.330625 70.474766 74.0625 71.5625 C74.944219 72.116152 74.944219 72.116152 79.40625 74.917969 C98.577519 87.03695 117.431979 99.628915 136.0625 112.5625 C137.434062 113.513828 138.805625 114.465156 140.21875 115.445312 C150.382182 122.548587 160.269019 129.958924 170.0625 137.5625 C172.475625 139.41875 174.88875 141.275 177.375 143.1875 C202.823579 163.641498 202.823579 163.641498 207.0625 178.5625 C207.0625 186.5625 207.0625 186.5625 204.0625 192.5625 C203.4025 193.2225 202.7425 193.8825 202.0625 194.5625 C195.0625 193.5625 195.0625 193.5625 191.0625 189.5625 C178.413711 185.94856 166.936844 186.750241 153.953125 188.070312 C145.072451 188.704646 136.21147 188.835047 127.3125 188.875 C124.100156 188.891758 120.887812 188.908516 117.578125 188.925781 C76.552724 187.359541 40.412641 169.636548 11.0625 141.5625 C9.4125 140.2425 7.7625 138.9225 6.0625 137.5625 C3.037749 133.916225 0.037332 130.249615 -2.9375 126.5625 C-4.2575 125.2425 -5.5775 123.9225 -6.9375 122.5625 C-5.803125 124.470313 -4.66875 126.378125 -3.5 128.34375 C19.35494 167.009299 35.212181 202.814095 26.0625 248.5625 C27.3825 249.2225 28.7025 249.8825 30.0625 250.5625 C32.681875 252.25375 35.30125 253.945 38 255.6875 C58.615194 268.271014 79.906134 272.048338 103.4375 275.5625 C128.07066 279.31862 128.07066 279.31862 139.0625 287.5625 C144.6332 295.91855 145.0625 300.386878 145.0625 310.5625 C145.413125 312.2125 145.76375 313.8625 146.125 315.5625 C147.877454 324.90892 146.335153 330.017193 142.0625 338.5625 C136.57492 344.12961 133.686191 346.384303 126.0625 348.5625 C127.25507 353.929063 128.595339 359.264419 130.0625 364.5625 C131.3825 365.2225 132.7025 365.8825 134.0625 366.5625 C136.0625 369.5625 136.0625 369.5625 136.023438 374.560547 C136.063683 380.744318 137.070165 385.640713 138.6875 391.59375 C139.228906 393.620156 139.770313 395.646563 140.328125 397.734375 C140.900469 399.822656 141.472812 401.910937 142.0625 404.0625 C143.190406 408.2388 144.315556 412.415845 145.4375 416.59375 C145.688867 417.514463 145.688867 417.514463 146.960938 422.173828 C148.0625 426.5625 148.0625 426.5625 148.0625 429.5625 C149.7125 430.2225 151.3625 430.8825 153.0625 431.5625 C159.0625 438.5625 159.0625 438.5625 160.0625 442.5625 C161.856875 442.088125 163.65125 441.61375 165.5 441.125 C193.861392 434.372288 220.845816 439.844624 246.0625 453.5625 C275.194836 472.174826 292.504573 499.274663 300.117188 532.75 C306.370749 564.586312 299.4512 596.709225 283.4375 624.625 C278.178876 632.390643 272.615549 638.871492 266.0625 645.5625 C265.350937 646.335938 265.350937 646.335938 261.75 650.25 C239.393947 670.817568 210.990846 679.687626 181.0625 678.5625 C150.945676 674.972415 124.6919 662.362649 104.5625 639.4375 C82.472213 610.597403 73.507144 580.003545 75.625 544 C80.682212 510.798302 95.824758 480.990807 123.0625 460.5625 C122.756395 455.227535 122.420601 449.894228 122.0625 444.5625 C123.0525 441.5925 124.0425 438.6225 125.0625 435.5625 C124.4025 434.5725 123.7425 433.5825 123.0625 432.5625 C117.874421 438.210283 112.692819 443.862146 107.5625 449.5625 C102.432141 455.262899 97.247327 460.911622 92.0625 466.5625 C82.9625 476.529167 82.9625 476.529167 78.6875 481.4375 C71.542752 489.56773 64.106019 497.436326 56.75 505.375 C52.449698 510.053351 48.234848 514.772026 44.0625 519.5625 C42.28875 521.356875 40.515 523.15125 38.6875 525 C34.0625 530.5625 34.0625 530.5625 33.0625 539.5625 C30.0625 542.5625 30.0625 542.5625 26.0625 543.5625 C25.0725 545.8725 24.0825 548.1825 23.0625 550.5625 C22.216875 550.779063 22.216875 550.779063 17.9375 551.875 C10.410996 554.036868 7.971591 557.586216 3.0625 563.5625 C-1.23345 567.657078 -4.509982 570.370117 -9.9375 572.8125 C-11.2575 573.72 -12.5775 574.6275 -13.9375 575.5625 C-14.8125 581.25 -14.8125 581.25 -13.9375 586.5625 C-12.2875 587.2225 -10.6375 587.8825 -8.9375 588.5625 C20.968033 603.326333 20.968033 603.326333 27.0625 618.5625 C26.0625 624.5625 26.0625 624.5625 24.0625 626.5625 C22.7425 626.8925 21.4225 627.2225 20.0625 627.5625 C19.0725 629.8725 18.0825 632.1825 17.0625 634.5625 C9.8125 636.8125 9.8125 636.8125 1.0625 638.5625 C-1.474375 639.2225 -4.01125 639.8825 -6.625 640.5625 C-19.801111 642.364361 -32.218638 635.787242 -44.5625 631.4375 C-47.566016 630.383047 -50.569531 629.328594 -53.664062 628.242188 C-60.9375 625.5625 -60.9375 625.5625 -63.9375 623.5625 C-64.9375 618.5625 -64.9375 618.5625 -62.9375 612.5625 C-65.5775 612.5625 -68.2175 612.5625 -70.9375 612.5625 C-85.899307 607.638361 -93.585618 599.401336 -100.9375 585.5625 C-101.7625 588.3675 -102.5875 591.1725 -103.4375 594.0625 C-113.380964 625.406533 -133.993567 649.493115 -162.3125 665.8125 C-189.143 679.007828 -217.179895 680.896654 -245.9375 673.5625 C-261.053009 668.320831 -274.78906 661.023657 -286.9375 650.5625 C-288.278125 649.469375 -289.61875 648.37625 -291 647.25 C-313.713107 625.978995 -328.028609 595.256777 -329.21875 564.230469 C-329.617712 529.470934 -321.347422 498.367275 -296.9375 472.5625 C-273.727122 449.352122 -246.209053 436.305158 -213.1875 436.25 C-187.957445 436.475268 -165.564258 443.1496 -145.3125 458.625 C-143.53875 459.924375 -141.765 461.22375 -139.9375 462.5625 C-138.2875 462.2325 -136.6375 461.9025 -134.9375 461.5625 C-134.2775 460.2425 -133.6175 458.9225 -132.9375 457.5625 C-130.6275 455.5825 -128.3175 453.6025 -125.9375 451.5625 C-120.9375 446.5625 -120.9375 446.5625 -114.9375 439.5625 C-114.9375 429.995539 -116.719278 422.560385 -119.9375 413.5625 C-122.9075 413.2325 -125.8775 412.9025 -128.9375 412.5625 C-133.9375 409.5625 -133.9375 409.5625 -135.9375 405.5625 C-135.9375 404.5725 -135.9375 403.5825 -135.9375 402.5625 C-145.292277 402.5625 -149.176077 406.430981 -156.9375 411.5625 C-169.861504 418.537359 -182.296665 423.732396 -196.9375 425.5625 C-201.9375 423.5625 -201.9375 423.5625 -203.9375 421.5625 C-206.2475 422.5525 -208.5575 423.5425 -210.9375 424.5625 C-213.9075 424.5625 -216.8775 424.5625 -219.9375 424.5625 C-220.4325 423.9025 -220.4325 423.9025 -222.9375 420.5625 C-220.203712 408.260455 -214.551172 398.208899 -207.9375 387.5625 C-210.2475 388.5525 -212.5575 389.5425 -214.9375 390.5625 C-222.9375 391.5625 -222.9375 391.5625 -226.9375 388.5625 C-226.9375 381.864391 -225.338414 379.174009 -221.9375 373.5625 C-225.2375 373.5625 -228.5375 373.5625 -231.9375 373.5625 C-234.9375 371.5625 -234.9375 371.5625 -235.9375 367.5625 C-232.439484 361.440972 -228.916337 356.541337 -223.9375 351.5625 C-224.5975 350.9025 -225.2575 350.2425 -225.9375 349.5625 C-224.5425 337.007499 -219.993689 330.12069 -211.9375 320.5625 C-212.4325 319.9025 -212.4325 319.9025 -214.9375 316.5625 C-214.9375 304.70566 -206.912325 296.537325 -198.9375 288.5625 C-198.9375 285.9225 -198.9375 283.2825 -198.9375 280.5625 C-194.245349 271.263511 -188.726072 263.433309 -181.9375 255.5625 C-180.2875 253.5825 -178.6375 251.6025 -176.9375 249.5625 C-176.2775 249.5625 -175.6175 249.5625 -174.9375 249.5625 C-174.2775 248.2425 -173.6175 246.9225 -172.9375 245.5625 C-143.244369 217.057095 -106.02715 203.336988 -66.4375 195.4375 C-56.56154 193.258979 -51.457523 191.386527 -44.9375 183.5625 C-40.19482 169.334459 -45.8808 154.925426 -52 142.1875 C-56.879603 133.977375 -62.366864 126.31295 -67.9375 118.5625 C-81.249297 99.637294 -90.038139 81.945878 -90.9375 58.5625 C-90.6075 57.2425 -90.2775 55.9225 -89.9375 54.5625 C-92.9075 54.2325 -95.8775 53.9025 -98.9375 53.5625 C-99.7625 53.0675 -99.7625 53.0675 -103.9375 50.5625 C-104.2675 48.9125 -104.5975 47.2625 -104.9375 45.5625 C-102.9575 43.2525 -100.9775 40.9425 -98.9375 38.5625 C-100.236875 37.44875 -101.53625 36.335 -102.875 35.1875 C-106.9375 31.5625 -106.9375 31.5625 -107.9375 29.5625 C-107.9375 27.5825 -107.9375 25.6025 -107.9375 23.5625 C-104.9375 21.5625 -104.9375 21.5625 -98.9375 19.5625 C-99.5975 18.7375 -99.5975 18.7375 -102.9375 14.5625 C-104.9375 9.5625 -104.9375 9.5625 -103.9375 3.5625 C-103.2775 2.9025 -102.6175 2.2425 -101.9375 1.5625 C-99.2975 1.8925 -96.6575 2.2225 -93.9375 2.5625 C-79.496865 3.46504 -68.926808 1.530008 -55.363281 -3.492188 C-36.909531 -10.108435 -17.098924 -9.899377 0 0 Z M-8.9375 118.5625 C-7.9375 120.5625 -7.9375 120.5625 -7.9375 120.5625 Z M99.0625 320.5625 C101.0625 325.5625 101.0625 325.5625 105.0625 328.5625 C121.118056 329.270833 121.118056 329.270833 126.0625 325.5625 C126.0625 324.2425 126.0625 322.9225 126.0625 321.5625 C124.37125 321.43875 122.68 321.315 120.9375 321.1875 C103.930921 319.378289 103.930921 319.378289 99.0625 320.5625 Z M66.0625 325.5625 C64.4125 327.2125 62.7625 328.8625 61.0625 330.5625 C57.0625 332.5625 57.0625 332.5625 48.0625 332.5625 C46.7425 333.2225 45.4225 333.8825 44.0625 334.5625 C39.729167 334.5625 35.395833 334.5625 31.0625 334.5625 C21.771385 336.627192 20.648901 337.644285 14.0625 343.5625 C-3.153009 354.181412 -18.917797 358.355604 -38.9375 360.5625 C-34.967643 364.532357 -30.878104 368.382465 -26.75 372.1875 C-17.086423 381.21123 -8.749898 390.162161 -1.9375 401.5625 C-1.4425 402.3875 -1.4425 402.3875 1.0625 406.5625 C7.67956 405.735368 13.721854 404.545691 20.179688 402.972656 C21.278734 402.706344 21.278734 402.706344 26.840576 401.358643 C29.182561 400.786541 31.524546 400.214438 33.9375 399.625 C38.805826 398.442035 43.674318 397.259752 48.542969 396.078125 C49.759441 395.782607 49.759441 395.782607 55.915527 394.287109 C62.559578 392.683858 69.209081 391.107394 75.863281 389.546875 C77.795103 389.093044 79.726924 388.639214 81.717285 388.171631 C85.344793 387.321499 88.973343 386.4758 92.603027 385.63501 C104.730725 382.783684 104.730725 382.783684 108.0625 380.5625 C107.7325 378.5825 107.4025 376.6025 107.0625 374.5625 C107.7225 372.9125 108.3825 371.2625 109.0625 369.5625 C108.375 364.875 108.375 364.875 107.0625 359.5625 C106.918125 358.685938 106.918125 358.685938 106.1875 354.25 C104.0625 349.5625 104.0625 349.5625 98.1875 346.6875 C96.16625 345.98625 94.145 345.285 92.0625 344.5625 C85.717235 339.486288 82.496852 334.627697 79.4375 327.125 C79.045625 326.207187 79.045625 326.207187 77.0625 321.5625 C74.0625 321.5625 74.0625 321.5625 66.0625 325.5625 Z M97.265625 406.929688 C95.752467 407.287684 95.752467 407.287684 88.094971 409.099365 C81.543187 410.663077 74.992682 412.232126 68.442139 413.801025 C66.81718 414.190055 65.192221 414.579085 63.518021 414.979904 C58.668033 416.141105 53.818147 417.302728 48.968262 418.464355 C41.440984 420.237737 33.906447 421.934152 26.347656 423.566406 C24.4479 423.988735 22.548145 424.411064 20.59082 424.846191 C15.72889 425.921715 10.858844 426.960364 5.988281 427.996094 C-0.9375 430.5625 -0.9375 430.5625 -3.602539 435.082275 C-4.373076 436.89075 -5.143613 438.699224 -5.9375 440.5625 C-6.649143 442.217656 -7.360786 443.872813 -8.093994 445.578125 C-8.445223 446.441797 -8.445223 446.441797 -10.222656 450.8125 C-11.000605 452.720312 -11.778555 454.628125 -12.580078 456.59375 C-13.378652 458.563437 -14.177227 460.533125 -15 462.5625 C-15.802441 464.532187 -16.604883 466.501875 -17.431641 468.53125 C-19.606103 473.872669 -21.776519 479.215613 -23.9375 484.5625 C-24.683142 486.362031 -25.428784 488.161562 -26.197021 490.015625 C-27.9375 494.5625 -27.9375 494.5625 -27.9375 497.5625 C-24.113209 498.99736 -20.222689 500.256632 -16.3125 501.4375 C-15.172324 501.789414 -15.172324 501.789414 -9.402344 503.570312 C-8.335645 503.899023 -8.335645 503.899023 -2.9375 505.5625 C4.821638 508.209028 11.721899 510.892199 19.0625 514.5625 C25.125 508.8125 25.125 508.8125 31.0625 501.5625 C31.660625 500.881875 31.660625 500.881875 34.6875 497.4375 C35.80125 496.15875 36.915 494.88 38.0625 493.5625 C41.395833 489.895833 44.729167 486.229167 48.0625 482.5625 C49.17625 481.28375 50.29 480.005 51.4375 478.6875 C56.540264 472.880907 61.810717 467.234426 67.0625 461.5625 C77.116554 450.643581 77.116554 450.643581 81.5625 445.5625 C86.303701 440.143984 91.192516 434.865371 96.0625 429.5625 C117.0625 406.351974 117.0625 406.351974 117.0625 403.5625 C110.14318 403.5625 104.001503 405.329032 97.265625 406.929688 Z M-98.9375 408.5625 C-95.516447 426.983553 -95.516447 426.983553 -92.9375 429.5625 C-88.252287 429.041921 -83.560002 428.487 -78.9375 427.5625 C-80.443595 420.032024 -83.695575 413.493511 -86.9375 406.5625 C-89.9375 405.5625 -89.9375 405.5625 -98.9375 408.5625 Z M-84.9375 450.5625 C-86.611518 455.584555 -84.369772 460.004358 -82.972656 465.011719 C-82.337793 467.303027 -81.70293 469.594336 -81.048828 471.955078 C-80.372715 474.362402 -79.696602 476.769727 -79 479.25 C-78.327754 481.668926 -77.655508 484.087852 -76.962891 486.580078 C-75.295286 492.57636 -73.619827 498.570335 -71.9375 504.5625 C-62.474327 499.830914 -58.460951 494.887116 -54.3125 485.5625 C-53.433359 483.644375 -52.554219 481.72625 -51.648438 479.75 C-49.9375 474.5625 -49.9375 474.5625 -51.9375 468.5625 C-54.598662 465.224771 -57.266115 461.892053 -59.9375 458.5625 C-62.303446 454.581703 -64.645013 450.586049 -66.9375 446.5625 C-72.240445 446.5625 -79.831774 449.248526 -84.9375 450.5625 Z M-108.9375 462.5625 C-111.982605 465.516706 -114.976205 468.524288 -117.9375 471.5625 C-119.0925 472.5525 -119.0925 472.5525 -124.9375 477.5625 C-122.9375 482.5625 -122.9375 482.5625 -119.8125 486.875 C-107.127553 505.493229 -101.700509 525.458425 -98.9375 547.5625 C-96.9575 547.5625 -94.9775 547.5625 -92.9375 547.5625 C-91.9475 546.5725 -90.9575 545.5825 -89.9375 544.5625 C-89.9375 543.9025 -89.9375 543.2425 -89.9375 542.5625 C-88.9475 542.2325 -87.9575 541.9025 -86.9375 541.5625 C-88.578092 528.437764 -92.550617 515.852871 -96.020752 503.106689 C-97.376009 498.121288 -98.716781 493.132137 -100.056641 488.142578 C-100.90291 485.023691 -101.74918 481.904805 -102.621094 478.691406 C-103.400251 475.814944 -104.179409 472.938481 -104.982178 469.974854 C-105.627434 467.858777 -106.27269 465.7427 -106.9375 463.5625 C-107.5975 463.2325 -108.2575 462.9025 -108.9375 462.5625 Z M-276.9375 496.5625 C-292.714648 516.929363 -299.615362 540.915174 -297.9375 566.5625 C-293.040149 592.708686 -282.625859 614.047068 -261.375 631 C-241.373088 644.104701 -221.260623 648.874942 -197.4375 645.5 C-171.970681 638.921072 -154.533829 624.634462 -140.9375 602.5625 C-131.9375 583.580682 -131.9375 583.580682 -131.9375 574.5625 C-141.249185 573.554817 -150.561971 572.557683 -159.875 571.5625 C-162.518223 571.276328 -165.161445 570.990156 -167.884766 570.695312 C-170.427441 570.424609 -172.970117 570.153906 -175.589844 569.875 C-177.930701 569.623633 -180.271558 569.372266 -182.68335 569.113281 C-188.9375 568.5625 -188.9375 568.5625 -197.9375 568.5625 C-199.9175 570.8725 -201.8975 573.1825 -203.9375 575.5625 C-213.846996 579.278561 -218.028004 579.278561 -227.9375 575.5625 C-235.232315 569.726648 -236.79441 564.707216 -237.9375 555.5625 C-235.9375 547.5625 -235.9375 547.5625 -229.9375 539.5625 C-221.9375 535.5625 -221.9375 535.5625 -215.611816 535.415771 C-206.875823 534.298927 -204.198698 531.198841 -198.148438 524.910156 C-196.218711 522.937246 -194.288984 520.964336 -192.300781 518.931641 C-190.324648 516.850449 -188.348516 514.769258 -186.3125 512.625 C-182.342214 508.531516 -178.370915 504.439014 -174.398438 500.347656 C-172.65353 498.521135 -170.908623 496.694614 -169.11084 494.812744 C-164.9375 490.5625 -164.9375 490.5625 -161.9375 488.5625 C-161.9375 487.5725 -161.9375 486.5825 -161.9375 485.5625 C-199.402102 458.634817 -244.756641 464.381641 -276.9375 496.5625 Z M167.0625 473.5625 C170.37647 494.660865 179.224731 516.805846 191.0625 534.5625 C194.0325 535.8825 197.0025 537.2025 200.0625 538.5625 C205.601971 543.178726 208.330111 545.632944 210.0625 552.5625 C210.579467 561.144153 209.742686 564.282082 206.0625 572.5625 C197.354702 580.026327 193.297076 581.243383 182.0625 580.5625 C174.0625 576.5625 174.0625 576.5625 168.0625 569.5625 C166.0625 563.5625 166.0625 563.5625 166.5 557.5 C165.927943 548.428816 162.496312 544.785494 157.0625 537.5625 C150.131185 525.805586 144.409785 513.918266 139.09375 501.351562 C137.835196 498.384279 136.503939 495.445378 135.0625 492.5625 C118.724236 506.566726 110.648802 525.675754 107.0625 546.5625 C105.580783 573.560546 111.225537 598.720181 129.375 619.5 C146.388337 637.874404 164.60474 646.697711 189.6875 647.8125 C213.743208 646.69363 231.292469 637.188994 248.1875 620.5 C265.702543 599.167576 271.771243 575.671931 271.0625 548.5625 C267.605171 522.056313 256.660338 501.541799 236.0625 484.5625 C215.404492 469.877892 191.216261 466.661426 167.0625 473.5625 Z M-148.9375 501.5625 C-152.100801 504.456016 -155.143878 507.481621 -158.125 510.5625 C-163.889018 516.493787 -169.699128 522.138361 -175.9375 527.5625 C-179.127981 530.663183 -182.294167 533.789031 -185.4375 536.9375 C-187.035937 538.533359 -188.634375 540.129219 -190.28125 541.773438 C-193.9375 545.5625 -193.9375 545.5625 -193.9375 546.5625 C-173.4775 546.8925 -153.0175 547.2225 -131.9375 547.5625 C-128.80533 531.901648 -138.235577 515.641237 -145.9375 502.5625 C-146.9275 502.2325 -147.9175 501.9025 -148.9375 501.5625 Z " fill="#12293F" transform="translate(404.9375,59.4375)"/>
<path d="M0 0 C10.330127 7.203904 15.82873 14.698302 20.75 26.3125 C21.054219 28.772031 21.358438 31.231562 21.671875 33.765625 C23.75 41.3125 23.75 41.3125 29.210938 45.820312 C30.351758 46.417148 30.351758 46.417148 36.125 49.4375 C38.574219 50.770391 41.023438 52.103281 43.546875 53.476562 C45.923906 54.742422 48.300937 56.008281 50.75 57.3125 C54.31326 59.443469 57.857302 61.607132 61.375 63.8125 C63.063672 64.865664 64.752344 65.918828 66.492188 67.003906 C195.762535 148.350106 195.762535 148.350106 204.75 175.3125 C204.42 178.2825 204.09 181.2525 203.75 184.3125 C202.76 184.6425 201.77 184.9725 200.75 185.3125 C198.392921 182.666799 196.065068 179.995039 193.75 177.3125 C177.570656 162.823536 156.787689 153.411909 137.75 143.3125 C136.154141 142.452695 134.558281 141.592891 132.914062 140.707031 C123.341195 135.566702 113.594514 130.906607 103.75 126.3125 C98.414364 123.650444 93.081431 120.982967 87.75 118.3125 C63.951285 106.519135 40.107513 94.917131 15.75 84.3125 C13.104844 83.1575 10.459687 82.0025 7.734375 80.8125 C-12.551033 71.989332 -12.551033 71.989332 -20.996094 68.625 C-26.25 66.3125 -26.25 66.3125 -28.25 63.3125 C-28.25 62.6525 -28.25 61.9925 -28.25 61.3125 C-29.075 61.6425 -29.075 61.6425 -33.25 63.3125 C-33.58 65.6225 -33.91 67.9325 -34.25 70.3125 C-33.92 69.6525 -33.92 69.6525 -32.25 66.3125 C-27.25 68.3125 -27.25 68.3125 -25.25 69.3125 C-23.580956 74.978467 -21.914521 80.645203 -20.25 86.3125 C-19.59 87.6325 -19.59 87.6325 -16.25 94.3125 C-16.25 94.9725 -16.25 95.6325 -16.25 96.3125 C-17.24 96.3125 -18.23 96.3125 -19.25 96.3125 C-13.383636 111.904677 -5.864848 126.130286 2.8125 140.3125 C23.810806 174.940812 31.467012 209.823452 21.9375 249.5625 C15.856324 272.908284 15.856324 272.908284 10.75 276.3125 C6.94821 275.534135 3.179502 274.590548 -0.5625 273.5625 C-2.600508 273.010781 -4.638516 272.459063 -6.738281 271.890625 C-10.601379 270.784536 -14.437879 269.583207 -18.25 268.3125 C0.177269 281.474835 23.70339 281.730469 45.566406 283.46875 C55.969048 284.690594 59.840684 286.251632 66.75 294.3125 C69.191572 300.416431 69.142914 304.763932 68.75 311.3125 C64.75 320.3125 64.75 320.3125 59.75 324.3125 C58.43 324.3125 57.11 324.3125 55.75 324.3125 C56.75 319.3125 56.75 319.3125 57.75 316.3125 C57.790497 311.979356 57.792902 307.645621 57.75 303.3125 C57.358125 305.478125 56.96625 307.64375 56.5625 309.875 C54.814066 317.049608 53.156602 322.041432 46.75 326.3125 C44.77 326.3125 42.79 326.3125 40.75 326.3125 C41.74 323.3425 42.73 320.3725 43.75 317.3125 C43.865004 312.980693 43.886774 308.643674 43.75 304.3125 C43.62625 305.230312 43.62625 305.230312 43 309.875 C41.579992 317.188042 39.815767 321.763175 33.75 326.3125 C31.11 326.3125 28.47 326.3125 25.75 326.3125 C25.75 324.9925 25.75 323.6725 25.75 322.3125 C26.245 321.8175 26.245 321.8175 28.75 319.3125 C30.317269 314.610692 29.968461 310.227872 29.75 305.3125 C26.75 300.3125 26.75 300.3125 21.75 298.3125 C14.724493 298.488138 12.374107 298.813214 6.75 303.3125 C4.75 311.3125 4.75 311.3125 7.75 320.3125 C12.75 323.3125 12.75 323.3125 19.75 324.3125 C20.41 325.9625 21.07 327.6125 21.75 329.3125 C4.82569 345.766691 -17.248434 351.3125 -40.25 351.3125 C-40.745 351.8075 -40.745 351.8075 -43.25 354.3125 C-39.612235 361.588029 -32.440937 366.274248 -26.375 371.5625 C-1.233339 394.864528 -1.233339 394.864528 0.25 410.625 C-0.389811 419.182479 -2.95254 425.343639 -6.25 433.3125 C-7.123984 435.43043 -7.997969 437.548359 -8.898438 439.730469 C-10.9241 444.635124 -12.955576 449.537381 -14.992188 454.4375 C-18.36472 462.589808 -21.6979 470.75641 -25 478.9375 C-26.005469 481.425391 -27.010938 483.913281 -28.046875 486.476562 C-30.25 492.3125 -30.25 492.3125 -30.25 495.3125 C-21.153095 499.124536 -11.88776 502.038787 -2.4375 504.8125 C11.796318 509.081707 23.068247 513.869432 30.75 527.3125 C30.75 529.2925 30.75 531.2725 30.75 533.3125 C28.44 533.9725 26.13 534.6325 23.75 535.3125 C23.09 537.2925 22.43 539.2725 21.75 541.3125 C19.77 540.3225 17.79 539.3325 15.75 538.3125 C6.75 538.3125 6.75 538.3125 0.75 543.3125 C0.42 543.9725 0.09 544.6325 -0.25 545.3125 C-6.211 543.82225 -8.916381 539.646119 -13.25 535.3125 C-28.293665 523.004047 -42.213724 512.028081 -62.25 511.3125 C-62.91 513.6225 -63.57 515.9325 -64.25 518.3125 C-65.24 517.6525 -66.23 516.9925 -67.25 516.3125 C-67.25 507.3125 -67.25 507.3125 -64.125 503 C-60.25 499.3125 -60.25 499.3125 -54.25 495.3125 C-51.863281 491.058594 -51.863281 491.058594 -49.5625 485.75 C-48.706563 483.782891 -47.850625 481.815781 -46.96875 479.789062 C-26.805499 431.75649 -26.805499 431.75649 -25.25 419.3125 C-30.864091 413.698409 -37.289942 411.016144 -44.375 407.4375 C-61.181464 398.891174 -77.824602 390.078315 -94.324219 380.953125 C-109.794127 372.410819 -122.219586 365.644707 -140.25 366.3125 C-149.25 369.3125 -149.25 369.3125 -154.25 375.3125 C-155.25 383.3125 -155.25 383.3125 -152.25 390.3125 C-150.27 391.9625 -148.29 393.6125 -146.25 395.3125 C-159.437288 405.862331 -177.041056 415.3125 -194.25 415.3125 C-193.25 410.3125 -193.25 410.3125 -190.25 405.3125 C-191.52875 406.034375 -192.8075 406.75625 -194.125 407.5 C-208.361111 415.3125 -208.361111 415.3125 -214.25 415.3125 C-211.211055 394.039888 -194.617922 375.880726 -178.25 363.3125 C-174.245254 359.651018 -170.244278 355.985399 -166.25 352.3125 C-164.93 351.6525 -163.61 350.9925 -162.25 350.3125 C-162.25 350.9725 -162.25 351.6325 -162.25 352.3125 C-145.838756 354.363906 -134.080062 346.935046 -121.25 337.3125 C-117.95 337.3125 -114.65 337.3125 -111.25 337.3125 C-81.640726 329.208909 -57.62891 304.579289 -42.535156 278.648438 C-34.681899 264.187373 -30.041025 252.103825 -31.25 235.3125 C-34.179788 227.322168 -36.551844 225.053776 -43.25 219.3125 C-53.912569 214.501341 -63.655239 212.993548 -75.25 215.3125 C-74.198125 215.364062 -74.198125 215.364062 -68.875 215.625 C-58.771345 216.535985 -50.749785 218.687642 -42.25 224.3125 C-35.338474 233.527868 -34.25 235.919128 -34.25 247.3125 C-38.114486 262.621811 -45.238926 274.743826 -58.375 283.875 C-63.25 286.3125 -63.25 286.3125 -70.25 287.3125 C-70.91 286.6525 -71.57 285.9925 -72.25 285.3125 C-71.92 282.6725 -71.59 280.0325 -71.25 277.3125 C-72.3225 278.4675 -73.395 279.6225 -74.5 280.8125 C-81.358943 287.310446 -88.256274 292.314591 -97.25 295.3125 C-99.23 294.9825 -101.21 294.6525 -103.25 294.3125 C-104.25 289.3125 -104.25 289.3125 -101.25 281.3125 C-102.508125 282.653125 -103.76625 283.99375 -105.0625 285.375 C-113.306416 293.221619 -118.811547 297.041561 -130.25 298.3125 C-132.25 293.3125 -132.25 293.3125 -130.375 288 C-130.024375 287.226562 -130.024375 287.226562 -128.25 283.3125 C-130.56 285.6225 -132.87 287.9325 -135.25 290.3125 C-142.918656 295.880155 -147.549235 298.698324 -157.25 297.3125 C-157.25 290.3125 -157.25 290.3125 -152.25 282.3125 C-152.971875 282.84875 -152.971875 282.84875 -156.625 285.5625 C-169.173077 293.927885 -169.173077 293.927885 -177.25 292.3125 C-177.58 291.9825 -177.91 291.6525 -178.25 291.3125 C-176.717153 280.582572 -171.877426 275.939926 -164.25 268.3125 C-166.51875 269.59125 -168.7875 270.87 -171.125 272.1875 C-177.600674 275.47515 -182.129105 277.665146 -189.25 278.3125 C-189.58 277.6525 -189.91 276.9925 -190.25 276.3125 C-175.222355 243.681042 -138.91438 219.743479 -106.25 207.3125 C-91.217131 202.276543 -75.954826 198.822163 -60.410156 195.769531 C-52.082555 193.799845 -46.334535 191.397035 -40.25 185.3125 C-34.725496 174.263492 -34.564958 166.273141 -37.25 154.3125 C-42.600848 138.417334 -50.823067 125.262068 -60.835938 111.96875 C-75.272026 92.280172 -85.803492 70.186943 -82.25 45.3125 C-81.92 44.6525 -81.59 43.9925 -81.25 43.3125 C-82.24 43.6425 -82.24 43.6425 -87.25 45.3125 C-89.89 44.9825 -92.53 44.6525 -95.25 44.3125 C-95.25 38.161792 -91.316745 35.633417 -87.25 31.3125 C-88.838125 30.714375 -90.42625 30.11625 -92.0625 29.5 C-97.25 27.3125 -97.25 27.3125 -100.25 24.3125 C-100.25 23.6525 -100.25 22.9925 -100.25 22.3125 C-95.27543 20.5714 -90.274555 18.903609 -85.25 17.3125 C-86.69375 16.219375 -88.1375 15.12625 -89.625 14 C-94.25 10.3125 -94.25 10.3125 -96.25 7.3125 C-96.25 5.9925 -96.25 4.6725 -96.25 3.3125 C-93.5275 3.51875 -90.805 3.725 -88 3.9375 C-75.450308 4.42018 -65.614677 2.352839 -53.8125 -1.75 C-35.034408 -8.244237 -18.054324 -9.242095 0 0 Z " fill="#F8EFD6" transform="translate(402.25,63.6875)"/>
<path d="M0 0 C20.890637 4.178127 41.717361 16.999127 61 26 C63.143711 26.984844 65.287422 27.969687 67.496094 28.984375 C198.618183 89.49091 198.618183 89.49091 211 106 C209.576875 105.835 208.15375 105.67 206.6875 105.5 C197.598667 104.700982 188.870392 105.021503 179.8125 106 C132.307103 110.276716 87.999315 102.615874 50.125 72.125 C28.862904 53.943208 4.113949 28.797641 0 0 Z " fill="#EC6B03" transform="translate(381,136)"/>
<path d="M0 0 C4.434123 2.421513 8.776747 5.012151 13.0625 7.6875 C14.319336 8.467383 14.319336 8.467383 20.679688 12.414062 C23.095391 13.927422 25.511094 15.440781 28 17 C31.561882 19.188507 35.124311 21.376123 38.6875 23.5625 C172.603441 106.810322 172.603441 106.810322 182 135 C181.67 137.97 181.34 140.94 181 144 C180.01 144.33 179.02 144.66 178 145 C175.642921 142.354299 173.315068 139.682539 171 137 C154.820656 122.511036 134.037689 113.099409 115 103 C113.404141 102.140195 111.808281 101.280391 110.164062 100.394531 C100.591195 95.254202 90.844514 90.594107 81 86 C75.664364 83.337944 70.331431 80.670467 65 78 C41.201285 66.206635 17.357513 54.604631 -7 44 C-8.322578 43.4225 -8.322578 43.4225 -15.015625 40.5 C-35.301033 31.676832 -35.301033 31.676832 -43.746094 28.3125 C-49 26 -49 26 -51 23 C-51 22.34 -51 21.68 -51 21 C-52.65 21.66 -54.3 22.32 -56 23 C-56.33 25.31 -56.66 27.62 -57 30 C-56.34 28.68 -55.68 27.36 -55 26 C-50 28 -50 28 -48 29 C-46.330956 34.665967 -44.664521 40.332703 -43 46 C-41.68 48.64 -40.36 51.28 -39 54 C-39 54.66 -39 55.32 -39 56 C-48.775886 54.044823 -56.141766 46.947302 -63 40 C-68.15191 31.561527 -69 28.202729 -69 18 C-66 13 -66 13 -63 10 C-52.258311 10 -49.827923 11.758421 -41 17 C-33.100645 18.830338 -28.080119 17.933399 -21 14 C-17.243797 10.083958 -13.567063 6.089072 -10 2 C-6 0 -6 0 0 0 Z " fill="#F88F08" transform="translate(425,104)"/>
<path d="M0 0 C-1 9 -1 9 -3 11 C-6.958759 12.079167 -10.943735 13.062515 -14.9375 14.003906 C-17.358359 14.579473 -19.779219 15.155039 -22.273438 15.748047 C-24.823203 16.346816 -27.372969 16.945586 -30 17.5625 C-35.02131 18.749286 -40.04217 19.937981 -45.0625 21.128906 C-47.301602 21.655569 -49.540703 22.182231 -51.847656 22.724854 C-57 24 -57 24 -59 25 C-58.520549 26.724443 -58.041099 28.448887 -57.547119 30.225586 C-55.374489 38.064032 -53.21834 45.90692 -51.0625 53.75 C-50.307754 56.463477 -49.553008 59.176953 -48.775391 61.972656 C-48.416064 63.284277 -48.416064 63.284277 -46.597656 69.921875 C-45.932581 72.330811 -45.267505 74.739746 -44.582275 77.22168 C-43 84 -43 84 -42.525146 90.379883 C-42 96 -42 96 -38 104 C-37.67 105.65 -37.34 107.3 -37 109 C-47.625 114 -47.625 114 -51 114 C-52.871149 108.142667 -54.535705 102.326731 -56.105469 96.386719 C-56.589537 94.595954 -57.073605 92.80519 -57.572342 90.960159 C-58.596621 87.161135 -59.614215 83.360303 -60.625732 79.557861 C-62.178766 73.720329 -63.750557 67.888115 -65.326172 62.056641 C-66.316205 58.375296 -67.305173 54.693664 -68.292969 51.011719 C-68.528875 50.133573 -68.528875 50.133573 -69.722702 45.689621 C-73 33.353697 -73 33.353697 -73 30 C-78.811386 34.971818 -84.25672 40.179339 -89.625 45.625 C-94.296619 50.363716 -98.878898 54.732415 -104 59 C-104.165 59.33 -104.165 59.33 -105 61 C-105.66 61 -106.32 61 -107 61 C-107 61.66 -107 62.32 -107 63 C-109.648357 65.354095 -112.320157 67.681812 -115 70 C-118.544852 73.475671 -122.063151 76.978519 -125.5625 80.5 C-127.576016 82.52125 -129.589531 84.5425 -131.664062 86.625 C-133.754922 88.72875 -135.845781 90.8325 -138 93 C-142.143471 97.169016 -146.289212 101.335777 -150.4375 105.5 C-152.271836 107.345937 -154.106172 109.191875 -155.996094 111.09375 C-159.09804 114.135159 -162.287 117.093458 -165.597656 119.90625 C-169 123 -169 123 -170 127 C-167.321892 127.025056 -164.643784 127.050112 -161.884521 127.075928 C-151.904496 127.170429 -141.924534 127.270544 -131.94458 127.372314 C-127.633397 127.415502 -123.322199 127.457188 -119.010986 127.497314 C-112.797642 127.55541 -106.584373 127.61899 -100.371094 127.683594 C-99.414546 127.69195 -99.414546 127.69195 -94.573837 127.734238 C-84.345847 127.846279 -74.203717 128.205089 -64 129 C-64.319687 129.9075 -64.319687 129.9075 -65.9375 134.5 C-68 141 -68 141 -69 149 C-74.923154 151.961577 -87.370043 148.421711 -94.164062 147.691406 C-96.491817 147.445835 -98.819572 147.200263 -101.217865 146.94725 C-108.687514 146.157919 -116.156251 145.360294 -123.625 144.5625 C-128.674421 144.02745 -133.7239 143.492938 -138.773438 142.958984 C-151.182963 141.645569 -163.591676 140.324711 -176 139 C-176.144375 137.411875 -176.28875 135.82375 -176.4375 134.1875 C-177 129 -177 129 -178 126 C-179.65 125.34 -181.3 124.68 -183 124 C-177.932864 118.088341 -172.76138 112.678691 -167.230957 107.212646 C-165.249356 105.250487 -163.267755 103.288327 -161.226105 101.266708 C-159.091568 99.156156 -156.957032 97.045603 -154.757812 94.871094 C-150.264871 90.410265 -145.772707 85.948652 -141.28125 81.486328 C-134.184018 74.438629 -127.083941 67.394053 -119.967773 60.365479 C-113.113263 53.589323 -106.277727 46.794517 -99.445312 39.996094 C-97.298631 37.883517 -95.151949 35.77094 -92.940216 33.594345 C-90.977528 31.635338 -89.014839 29.67633 -86.992676 27.657959 C-85.252049 25.933672 -83.511422 24.209384 -81.718048 22.432846 C-78 18 -78 18 -78 12 C-73.17046 10.093603 -69.200873 9 -64 9 C-63.835 9.33 -63.835 9.33 -63 11 C-55.63269 9.930243 -48.467359 8.19688 -41.257812 6.363281 C-40.27168 6.116104 -40.27168 6.116104 -35.28125 4.865234 C-31.152265 3.823818 -27.02467 2.776876 -22.898438 1.724609 C-20.933906 1.234121 -18.969375 0.743633 -16.945312 0.238281 C-15.156255 -0.215066 -13.367197 -0.668413 -11.523926 -1.135498 C-7.083149 -1.984111 -4.134775 -2.067387 0 0 Z " fill="#1E82BB" transform="translate(373,483)"/>
<path d="M0 0 C20.788597 19.204704 31.174755 41.982987 34 70 C35.206279 101.363252 24.200926 129.085867 3 152 C-16.9276 170.07387 -39.350216 177.146003 -66 176 C-91.411448 172.396884 -108.160437 160.839563 -126 143 C-144.703325 116.907708 -151.090752 89.18064 -146.875 57.5625 C-141.409015 35.516359 -131.565548 17.645239 -115 2 C-112 6 -112 6 -111 11 C-113.914881 14.734691 -116.929501 18.392164 -120 22 C-135.74643 45.357205 -140.788601 69.169949 -136.875 97 C-130.23939 121.772945 -117.186239 142.612143 -95.125 156.25 C-76.765786 165.912744 -58.309557 167.985988 -38 164 C-16.848777 157.378748 -0.746635 145.18521 10.75 126.125 C23.54695 101.660243 27.105641 78.271864 21 51 C13.44398 27.804777 0.204671 10.181407 -21 -2 C-44.590691 -11.394523 -63.877905 -10.970779 -88 -3 C-88.66 -3 -89.32 -3 -90 -3 C-92 -8 -92 -8 -92 -12 C-61.116926 -25.79882 -26.572554 -21.050985 0 0 Z " fill="#E9E1CA" transform="translate(651,540)"/>
<path d="M0 0 C5.46678 5.46678 7.764624 10.905157 8.625 18.5625 C7.813305 26.922957 5.226466 33.202708 2 41 C1.126016 43.11793 0.252031 45.235859 -0.648438 47.417969 C-2.6741 52.322624 -4.705576 57.224881 -6.742188 62.125 C-10.11472 70.277308 -13.4479 78.44391 -16.75 86.625 C-17.755469 89.112891 -18.760938 91.600781 -19.796875 94.164062 C-22 100 -22 100 -22 103 C-12.903095 106.812036 -3.63776 109.726287 5.8125 112.5 C20.046318 116.769207 31.318247 121.556932 39 135 C39 136.98 39 138.96 39 141 C37.845 141.33 37.845 141.33 32 143 C31.67 143.99 31.67 143.99 30 149 C28.02 148.01 26.04 147.02 24 146 C15 146 15 146 9 151 C8.67 151.66 8.34 152.32 8 153 C2.039 151.50975 -0.666381 147.333619 -5 143 C-20.043665 130.691547 -33.963724 119.715581 -54 119 C-54.66 121.31 -55.32 123.62 -56 126 C-56.99 125.34 -57.98 124.68 -59 124 C-59 115 -59 115 -55.875 110.6875 C-52 107 -52 107 -46 103 C-43.613281 98.746094 -43.613281 98.746094 -41.3125 93.4375 C-40.456563 91.470391 -39.600625 89.503281 -38.71875 87.476562 C-18.555499 39.44399 -18.555499 39.44399 -17 27 C-21 23 -21 23 -25 20 C-23.02 19.484375 -21.04 18.96875 -19 18.4375 C-12.138905 16.048369 -8.797517 14.320882 -4 9 C-2.68 6.03 -1.36 3.06 0 0 Z " fill="#F88E08" transform="translate(394,456)"/>
<path d="M0 0 C-2 4 -2 4 -6 7 C-9.902486 4.770008 -13.783345 2.495655 -17.5625 0.0625 C-36.611895 -10.66647 -57.241936 -12.2681 -78.4375 -8.5 C-105.250137 0.363682 -121.857694 14.406908 -134.75 39.3125 C-144.689475 64.437285 -143.508434 89.378648 -134.75 114.4375 C-123.25875 137.681165 -106.428587 154.356592 -81.8125 162.8125 C-59.6667 169.013324 -39.415787 166.127517 -19 156 C1.637924 142.413367 14.289465 125.700986 21.0625 101.6875 C21.382187 100.749063 21.382187 100.749063 23 96 C28 95 28 95 32 96 C28.367233 122.15592 13.623616 144.083948 -7 160 C-28.381211 174.254141 -50.849257 178.565859 -75.9375 174.8125 C-102.420539 168.015968 -121.8476 153.635067 -137 131 C-151.317456 104.855081 -155.201092 79.205145 -149 50 C-140.626354 21.928997 -124.719385 2.595878 -99.375 -11.75 C-66.417818 -26.273504 -28.139304 -24.119404 0 0 Z " fill="#EAE1CA" transform="translate(250,539)"/>
<path d="M0 0 C5 5 5 5 5 8 C6.98 8.66 8.96 9.32 11 10 C14.01103 11.646657 17.00886 13.317484 20 15 C28.849252 19.588501 37.666699 23.511796 47 27 C73.152466 38.623318 73.152466 38.623318 84 48 C85.98 49.65 87.96 51.3 90 53 C96 61 96 61 96 63 C89.347216 61.669443 84.403145 58.621655 78.4375 55.375 C75.934141 54.018906 73.430781 52.662812 70.851562 51.265625 C68.260547 49.857969 65.669531 48.450312 63 47 C55.783336 43.123965 48.561438 39.257971 41.335938 35.398438 C37.497428 33.339557 33.666854 31.265657 29.851562 29.164062 C17.548484 22.435476 8.076921 19.171946 -6 20 C-15 23 -15 23 -20 29 C-21 37 -21 37 -18 44 C-17.01 44.825 -17.01 44.825 -12 49 C-25.187288 59.549831 -42.791056 69 -60 69 C-59 64 -59 64 -56 59 C-57.27875 59.721875 -58.5575 60.44375 -59.875 61.1875 C-74.111111 69 -74.111111 69 -80 69 C-76.961055 47.727388 -60.367922 29.568226 -44 17 C-39.995254 13.338518 -35.994278 9.672899 -32 6 C-30.68 5.34 -29.36 4.68 -28 4 C-28 4.66 -28 5.32 -28 6 C-16.848912 7.393886 -9.994269 4.997135 0 0 Z " fill="#D6C7B1" transform="translate(268,410)"/>
<path d="M0 0 C4 2 4 2 9.8125 5.6875 C31.502421 18.701453 53.304075 23.582467 78 27 C102.976991 30.647492 102.976991 30.647492 113 39 C116 47 116 47 115 50 C113.02 48.68 111.04 47.36 109 46 C101.539568 43.513189 94.845576 43.183881 87 43 C81 46 81 46 79 49 C79 58 79 58 80 62 C77.36 62 74.72 62 72 62 C70.68 59.36 69.36 56.72 68 54 C61.972347 47.972347 58.994183 46.056977 50.4375 45.8125 C48.313125 45.544375 46.18875 45.27625 44 45 C43.175 43.68 43.175 43.68 39 37 C25.243712 28.087476 6.88014 29.225561 -9 28 C-6.216487 18.587879 -3.12444 9.303889 0 0 Z " fill="#D6C7B1" transform="translate(429,313)"/>
<path d="M0 0 C5 4 5 4 8 11 C1 13 1 13 -2 12 C-2 46.337459 17.697624 91.966318 40.625 117.0625 C44 121 44 121 44 127 C43.34 127.66 43.34 127.66 40 131 C27.568795 128.513759 20.632567 114.320999 13.8125 104.625 C8.954086 96.927254 4.893114 89.225773 1 81 C-0.2375 78.4425 -1.475 75.885 -2.75 73.25 C-11.367815 53.713996 -21 30.381662 -21 9 C-15.922478 0.537463 -9.49413 0 0 0 Z " fill="#1E82BB" transform="translate(553,493)"/>
<path d="M0 0 C-2 5 -2 5 -5 8 C-10 8 -15 8 -20 8 C-26 11 -26 11 -27 13 C-25.7625 14.36125 -24.525 15.7225 -23.25 17.125 C-22.1775 18.73375 -21.105 20.3425 -20 22 C-21.65 24.64 -23.3 27.28 -25 30 C-25.33 28.68 -25.66 27.36 -26 26 C-27.32 25.34 -28.64 24.68 -30 24 C-30.99 23.01 -31.98 22.02 -33 21 C-33.99 21.33 -34.98 21.66 -36 22 C-39.037156 31.111468 -38.342612 37.086369 -35 46 C-31 44 -31 44 -25 39 C-23.35 41.31 -21.7 43.62 -20 46 C-21.98 47.98 -23.96 49.96 -26 52 C-26.33 53.32 -26.66 54.64 -27 56 C-18.05491 58.981697 -9.94509 58.981697 -1 56 C-4 50 -4 50 -8 46 C-6 42 -6 42 -2 40 C0.31 41.98 2.62 43.96 5 46 C5.66 46 6.32 46 7 46 C10.609141 36.642968 9.610868 29.665207 8 20 C8.825 18.845 8.825 18.845 13 13 C17.36763 17.36763 18.807855 22.039276 20 28 C20 41.79863 17.564414 50.872973 8 61 C-3.569334 68.230834 -11.636999 70.07349 -25 67 C-36.686293 61.156853 -42.278068 55.167755 -46.875 43.0625 C-49.176775 32.704511 -48.060173 24.786059 -44 15 C-38.346695 6.180845 -31.626164 1.850465 -22 -2 C-14.201344 -3.114094 -7.504229 -2.50141 0 0 Z " fill="#D6C7B1" transform="translate(356,599)"/>
<path d="M0 0 C0.33 0.165 0.33 0.165 2 1 C5.217617 11.129534 5.217617 11.129534 4 16 C0.39498 20.055647 -3.281024 24.048588 -7 28 C-7.7425 28.825 -7.7425 28.825 -11.5 33 C-18.484575 40.760639 -25.562799 48.435048 -32.625 56.125 C-35.930202 59.737663 -39.224415 63.360462 -42.5 67 C-47.630324 72.70036 -52.817849 78.346745 -58 84 C-59.485 85.65 -60.97 87.3 -62.5 89 C-67.630324 94.70036 -72.817849 100.346745 -78 106 C-81.003997 109.329732 -84.005428 112.661789 -87 116 C-89.666667 113.333333 -92.333333 110.666667 -95 108 C-92.737081 102.342704 -90.025889 99.558943 -85.8125 95.1875 C-80.7353 89.897695 -75.807968 84.5356 -71 79 C-69.166667 77 -69.166667 77 -60 67 C-58.865625 65.700625 -57.73125 64.40125 -56.5625 63.0625 C-51.485434 57.272864 -46.227313 51.654033 -41 46 C-36.857479 41.427087 -32.734362 36.84521 -28.6875 32.1875 C-23.55983 26.364553 -18.262541 20.701086 -13 15 C-8.610941 10.044611 -4.308475 5.026554 0 0 Z " fill="#1E82BB" transform="translate(523,470)"/>
<path d="M0 0 C-0.04125 1.85625 -0.0825 3.7125 -0.125 5.625 C1 12 1 12 5 15.1875 C6.98 16.115625 8.96 17.04375 11 18 C34.504902 30.009804 34.504902 30.009804 41 43 C40.835 43.33 40.835 43.33 40 45 C39.175 45.165 39.175 45.165 35 46 C34.34 48.31 33.68 50.62 33 53 C31.35 52.34 29.7 51.68 28 51 C25 50 25 50 16 50 C13.28759 52.279997 10.613857 54.607656 8 57 C3.029368 54.514684 0.480101 51.283202 -3 47 C-3 46.34 -3 45.68 -3 45 C-4.32 44.34 -5.64 43.68 -7 43 C-8.4025 41.906875 -9.805 40.81375 -11.25 39.6875 C-16 36 -16 36 -24 31 C-22.35 29.35 -20.7 27.7 -19 26 C-12.111039 18.748462 -8.768196 11.688684 -6 2 C-1 0 -1 0 0 0 Z " fill="#F88D08" transform="translate(386,636)"/>
<path d="M0 0 C2 7 2 7 2 12 C-25.772242 18.850571 -53.563537 25.622903 -81.375 32.3125 C-84.1601 32.988694 -86.9452 33.664888 -89.814697 34.361572 C-92.399832 34.980886 -94.984966 35.6002 -97.648438 36.238281 C-99.96021 36.795559 -102.271982 37.352837 -104.653809 37.927002 C-110 39 -110 39 -113 38 C-112.851562 31.765625 -112.851562 31.765625 -111 25 C-105.460938 22.359375 -105.460938 22.359375 -97.375 20.75 C-95.781074 20.408398 -95.781074 20.408398 -87.714844 18.679688 C-86.755056 18.4823 -86.755056 18.4823 -81.897949 17.483398 C-73.461023 15.669044 -65.08075 13.655751 -56.691406 11.632812 C-53.416856 10.843965 -50.142279 10.055229 -46.867676 9.266602 C-46.049131 9.069395 -46.049131 9.069395 -41.906799 8.071411 C-33.86671 6.135675 -25.824773 4.209821 -17.777344 2.304688 C-16.391561 1.974607 -16.391561 1.974607 -9.378662 0.304199 C-3 -1 -3 -1 0 0 Z " fill="#1E82BB" transform="translate(518,446)"/>
<path d="M0 0 C0.33 0.825 0.33 0.825 2 5 C-14.92431 21.454191 -36.998434 27 -60 27 C-61.65 28.65 -63.3 30.3 -65 32 C-65 31.34 -65 30.68 -65 30 C-65.99 29.67 -66.98 29.34 -68 29 C-68.66 28.34 -69.32 27.68 -70 27 C-74.260172 24.443897 -78.681333 22.159334 -83.125 19.9375 C-91 16 -91 16 -94 14 C-93.67 13.01 -93.34 12.02 -93 11 C-85.212924 9.633846 -78.851701 8.878328 -71 10 C-65.538212 9.782421 -60.079484 9.48147 -54.625 9.125 C-53.177383 9.033477 -53.177383 9.033477 -45.851562 8.570312 C-39 8 -39 8 -38 7 C-35.9375 6.608125 -33.875 6.21625 -31.75 5.8125 C-24 4 -24 4 -17.3125 0.6875 C-10.292128 -2.301371 -7.140215 -2.503712 0 0 Z " fill="#D6C7B1" transform="translate(422,388)"/>
<path d="M0 0 C8.491196 1.213028 11.672797 3.340997 17 10 C18.820263 17.281052 19.340778 20.849184 18 28 C12.214272 37.257164 10.127828 39.202065 0 43 C-4.875 43.398438 -4.875 43.398438 -10 43.375 C-11.69125 43.382734 -13.3825 43.390469 -15.125 43.398438 C-23.20599 42.737972 -27.834639 40.137801 -34 35 C-36.715933 29.691586 -39.384084 24.358408 -42 19 C-43.32 17.68 -44.64 16.36 -46 15 C-46.800949 10.354496 -47.479421 5.685213 -48 1 C-40 3 -40 3 -34 8 C-32.215778 11.610925 -30.552008 15.283349 -29 19 C-25 27 -25 27 -19 31 C-10.758921 31.915675 -5.009219 31.779827 3 30 C7 25 7 25 7 16 C4 13 4 13 -3 10 C-3 7.69 -3 5.38 -3 3 C-2.01 2.01 -1.02 1.02 0 0 Z " fill="#D6C7B1" transform="translate(528,361)"/>
<path d="M0 0 C38.115 13.23 38.115 13.23 43 23 C32.629915 24.152232 22.484555 24.184104 12.0625 24.1875 C11.0754 24.193623 11.0754 24.193623 6.080078 24.224609 C4.167754 24.226543 2.25543 24.228477 0.285156 24.230469 C-0.581698 24.232523 -0.581698 24.232523 -4.968506 24.24292 C-15.065132 23.755456 -19.070134 22.797028 -27 16 C-27 7 -27 7 -23 2 C-15.805295 -1.597352 -7.822488 -0.744135 0 0 Z " fill="#413E3F" transform="translate(278,434)"/>
<path d="M0 0 C0.99 0.66 1.98 1.32 3 2 C2.34 2.66 1.68 3.32 1 4 C7.891831 7.533312 14.842085 10.671398 22 13.625 C60.02698 29.625072 97.125426 47.523485 134 66 C136.43375 67.216875 138.8675 68.43375 141.375 69.6875 C144.22125 71.110625 147.0675 72.53375 150 74 C151.973555 74.969375 153.947109 75.93875 155.980469 76.9375 C208.193393 102.7186 208.193393 102.7186 225 119 C224.01 119.33 223.02 119.66 222 120 C217 117 217 117 212 113 C175.116573 89.689674 135.375762 70.694927 96 52 C93.12668 50.62457 90.253359 49.249141 87.292969 47.832031 C60.8234 35.187933 34.158225 23.103129 7 12 C9.623336 20.475393 12.962575 28.108668 17 36 C17 36.66 17 37.32 17 38 C14.36 38 11.72 38 9 38 C9 37.34 9 36.68 9 36 C9.99 36 10.98 36 12 36 C11.071875 34.06125 10.14375 32.1225 9.1875 30.125 C3 16.294118 3 16.294118 3 9 C0.69 8.34 -1.62 7.68 -4 7 C-4.66 8.32 -5.32 9.64 -6 11 C-6.33 11 -6.66 11 -7 11 C-7 5 -7 5 -4 1 C-2.68 0.67 -1.36 0.34 0 0 Z " fill="#403E3F" transform="translate(374,124)"/>
<path d="M0 0 C0.33 0 0.66 0 1 0 C5.295795 21.478975 -2.441916 48.883832 -12 68 C-15.981374 69.990687 -21.459756 67.20472 -25.5 66.125 C-27.593437 65.570703 -29.686875 65.016406 -31.84375 64.445312 C-37 63 -37 63 -39 62 C-38 59 -38 59 -31 55 C-30.835 54.835 -30.835 54.835 -30 54 C-28.68 52.68 -27.36 51.36 -26 50 C-25.34 50 -24.68 50 -24 50 C-23.34 48.68 -22.68 47.36 -22 46 C-21.175 45.01 -21.175 45.01 -17 40 C-15.241309 37.053004 -13.5938 34.039339 -12 31 C-10.659375 28.48375 -9.31875 25.9675 -7.9375 23.375 C-4.278201 15.591729 -1.928439 8.356568 0 0 Z " fill="#D6C7B1" transform="translate(427,271)"/>
<path d="M0 0 C2.008059 7.414509 4.005078 14.831947 6 22.25 C6.572344 24.362773 7.144688 26.475547 7.734375 28.652344 C8.275781 30.669727 8.817188 32.687109 9.375 34.765625 C9.877734 36.629932 10.380469 38.494238 10.898438 40.415039 C12 45 12 45 12 49 C7.7156 50.483062 3.377931 51.821326 -1 53 C-4.491869 43.68835 -7.074101 34.208586 -9.6875 24.625 C-10.198613 22.770039 -10.709727 20.915078 -11.236328 19.003906 C-15 5.26575 -15 5.26575 -15 3 C-9.764033 1.184865 -5.563406 0 0 0 Z " fill="#1E82BB" transform="translate(536,440)"/>
<path d="M0 0 C7 0 7 0 14 3 C21 11.166667 21 11.166667 21 23 C17 31 17 31 11 36 C8 37 8 37 -2 37 C-8 34 -8 34 -14 27 C-15 24 -15 24 -15 17 C-9 22 -9 22 -4 27 C-2 28 -2 28 4 28 C9 25 9 25 10 23 C10 12.046838 7.087473 9.884814 0 2 C0 1.34 0 0.68 0 0 Z " fill="#D6C7B1" transform="translate(590,599)"/>
<path d="M0 0 C1.155 0.825 1.155 0.825 7 5 C4.928128 10.179679 2.440068 13.64505 -0.9375 18.0625 C-9.946835 29.858228 -9.946835 29.858228 -13 38 C-16 40 -16 40 -22 40 C-23.65 38.35 -25.3 36.7 -27 35 C-27 29 -27 29 -23 24 C-21.35 23.01 -19.7 22.02 -18 21 C-14.953892 17.371547 -11.959528 13.69941 -9 10 C-6.018349 6.650244 -3.023789 3.311769 0 0 Z " fill="#D6C7B1" transform="translate(361,601)"/>
<path d="M0 0 C6.267868 2.089289 9.015907 10.628632 12 16 C17.069637 28.110799 21 39.786273 21 53 C18.36 53 15.72 53 13 53 C11 48 11 48 10.25 42.625 C8.006737 30.735704 2.870633 20.483274 -3 10 C-3 9.34 -3 8.68 -3 8 C-3.66 8 -4.32 8 -5 8 C-4 4 -4 4 0 0 Z " fill="#E9E0C9" transform="translate(262,554)"/>
<path d="M0 0 C5 4 5 4 8 13 C6 22 6 22 1 27 C-6 28 -6 28 -11 25 C-14.726854 18.788576 -14.516079 15.151377 -14 8 C-8.666667 0 -8.666667 0 0 0 Z " fill="#233547" transform="translate(394,91)"/>
<path d="M0 0 C2.637422 1.383164 5.274844 2.766328 7.992188 4.191406 C10.016016 5.262617 12.039844 6.333828 14.125 7.4375 C13.795 8.0975 13.465 8.7575 13.125 9.4375 C9.047213 10.59713 4.936028 11.640312 0.8125 12.625 C-0.319941 12.900215 -0.319941 12.900215 -6.050781 14.292969 C-11.875 15.4375 -11.875 15.4375 -15.875 14.4375 C-23.466133 -0.518165 -23.466133 -0.518165 -24.875 -7.5625 C-15.446225 -9.919694 -8.109588 -4.270093 0 0 Z " fill="#D6C7B1" transform="translate(346.875,469.5625)"/>
<path d="M0 0 C11.545429 0 19.380797 1.587198 29 8 C32 12 32 12 34 21 C33.309062 20.608125 33.309062 20.608125 29.8125 18.625 C18.666685 13.591406 8.924818 13.615036 -3 16 C-3.66 14.35 -4.32 12.7 -5 11 C-5.99 11.33 -6.98 11.66 -8 12 C-8.33 11.34 -8.66 10.68 -9 10 C-7.68 10 -6.36 10 -5 10 C-4.67 8.02 -4.34 6.04 -4 4 C-2.68 2.68 -1.36 1.36 0 0 Z " fill="#F6EDD4" transform="translate(511,342)"/>
<path d="M0 0 C-1.98 2.31 -3.96 4.62 -6 7 C-11 13 -11 13 -11 21 C-4.040204 27.959796 1.446263 26.781212 11 27 C9 31 9 31 2 35 C-6 35 -6 35 -14 31 C-18 26 -18 26 -20 19 C-18.853431 9.827451 -17.155957 6.724765 -10 1 C-7 0 -7 0 0 0 Z " fill="#D6C7B1" transform="translate(191,599)"/>
<path d="M0 0 C7 1 7 1 14 0 C5.850428 9.507833 -1.723143 14.779233 -13 20 C-13.99 20 -14.98 20 -16 20 C-17.5625 12.375 -17.5625 12.375 -18 4 C-11.558529 -2.969461 -9.497046 -2.110455 0 0 Z " fill="#1E81B9" transform="translate(396,613)"/>
<path d="M0 0 C0.33 0.66 0.66 1.32 1 2 C-0.486669 6.243445 -2.089811 10.446389 -3.75 14.625 C-4.652344 16.927266 -5.554688 19.229531 -6.484375 21.601562 C-7.314531 23.383047 -8.144687 25.164531 -9 27 C-9.99 27 -10.98 27 -12 27 C-16.963851 21.235528 -20.954611 15.472623 -25 9 C-24.67 8.01 -24.34 7.02 -24 6 C-20.016788 4.804163 -15.985515 3.766221 -11.9375 2.8125 C-10.828262 2.547598 -10.828262 2.547598 -5.214844 1.207031 C-3.493945 0.808711 -1.773047 0.410391 0 0 Z " fill="#D6C8B1" transform="translate(368,498)"/>
<path d="M0 0 C3.170101 4.755152 4.385685 10.135474 6.125 15.5625 C10.918745 30.105581 16.492829 43.627851 24 57 C24 57.99 24 58.98 24 60 C22.68 60 21.36 60 20 60 C9.000343 41.890809 0.688619 22.427313 -5 2 C-3.35 1.34 -1.7 0.68 0 0 Z " fill="#1F6D9A" transform="translate(566,535)"/>
<path d="M0 0 C4 2 4 2 9 6 C10.125 12.4375 10.125 12.4375 10 19 C7.333333 21.666667 4.666667 24.333333 2 27 C0.68 26.34 -0.64 25.68 -2 25 C-4.627066 15.805269 -4.786387 9.834902 -1 1 C-0.67 0.67 -0.34 0.34 0 0 Z " fill="#20597F" transform="translate(321,619)"/>
</svg>
